<svg viewBox="0 0 48 48" xmlns="http://www.w3.org/2000/svg"><path d="m24 0c-13.236 0-24 10.764-24 24 0 13.236 10.764 24 24 24s24-10.764 24-24c0-13.236-10.764-24-24-24z" fill="#008cbe" fill-rule="evenodd"/><path d="m20.561 31.635v-14.135h-5.4425v-1.5118c2.0787-0.11338 3.6661-0.03779 5.2913-1.663 1.5874-1.6252 1.474-3.2882 1.5874-5.3669h1.5874v6.8787h7.7858v1.663h-7.7858v14.135c0 2.3811 1.6252 4.4598 4.0441 4.4598 1.0205 0.0378 2.0787-0.37795 2.9858-1.2472l1.0961 1.1717c-1.3228 1.3228-3.0614 1.9654-4.7622 1.9276-3.5906 0-6.3874-2.6079-6.3874-6.3118z" fill="#fff" fill-rule="evenodd"/>
</svg>
