<svg width="1em" height="1em" fill="currentColor" viewBox="0 0 14 14" xmlns="http://www.w3.org/2000/svg"><path d="m7 0c3.8676 0 7 3.1324 7 7s-3.1324 7-7 7-7-3.1324-7-7 3.1324-7 7-7zm0 0.99843c-3.3135 0-6.0016 2.6881-6.0016 6.0016 0 3.3135 2.6881 6.0016 6.0016 6.0016 3.3135 0 6.0016-2.6881 6.0016-6.0016 0-3.3135-2.6881-6.0016-6.0016-6.0016zm-1.536 7.757v-2.7594l-1.4647 0.00549v-0.95455l0.49922-0.043887c0.55956-0.049373 0.92163-0.10972 1.1081-0.34561 0.18103-0.22492 0.34013-0.57602 0.3895-1.1466l0.043887-0.51019h0.96003v2.0023h2.0023v0.99843h-2.0023v2.7594c0 0.25235-0.010972 0.57602 0.098746 0.82288 0.10972 0.24687 0.33464 0.41144 0.68574 0.41693 0.17006 0 0.36755-0.1152 0.55407-0.26332 0.18652-0.14812 0.3511-0.32367 0.45533-0.43887l0.75157 0.68025c-0.31818 0.31818-0.59248 0.57602-0.90517 0.75157-0.3127 0.17555-0.66928 0.27429-1.1411 0.27429-0.66379 0-1.1685-0.21395-1.5141-0.60345-0.34013-0.3895-0.52116-0.94906-0.52116-1.6403z" fill-rule="evenodd"/></svg>
