<svg width="1em" height="1em" fill="currentColor" viewBox="0 0 16 16" xmlns="http://www.w3.org/2000/svg"><path d="m8.0189 0c4.4255 0 7.9811 3.5934 7.9811 8.0189 0 4.4255-3.5556 7.9811-7.9811 7.9811-4.4255 0-8.0189-3.5556-8.0189-7.9811 0-4.4255 3.5934-8.0189 8.0189-8.0189zm-1.6265 9.6454c0 0.7565 0.13955 1.4086 0.49173 1.8534 0.36674 0.46325 0.9468 0.70789 1.7408 0.73057 0.53068 0.01516 0.93471-0.14267 1.2861-0.35232 0.32732-0.19531 0.64218-0.49173 1.0204-0.86998l-0.86998-0.7565c-0.16821 0.20393-0.31395 0.33807-0.52396 0.50291-0.1052 0.082569-0.42167 0.29142-0.64862 0.29142-0.37825 0-0.64952-0.18644-0.7565-0.4539-0.12002-0.30006-0.11348-0.68085-0.11348-0.94563v-3.6312h2.0047v-1.0213h-2.0047v-2.0047h-0.94563l-0.075651 0.6052c-0.075649 0.98345-0.64303 1.3995-1.4374 1.4374h-0.56738v0.98345h1.3995z" fill-rule="evenodd"/></svg>
