<svg width="1em" height="1em" fill="currentColor" viewBox="0 0 16 16" xmlns="http://www.w3.org/2000/svg"><path d="m8.0195 0c-4.4255 1.1842e-15 -8.0195 3.594-8.0195 8.0195 0 4.4255 3.594 7.9805 8.0195 7.9805 4.4255 0 7.9805-3.5549 7.9805-7.9805 0-4.4255-3.5549-8.0195-7.9805-8.0195zm-0.0039062 1c3.8723 0 6.9844 3.1433 6.9844 7.0156 0 3.8723-3.112 6.9844-6.9844 6.9844-3.8723 0-7.0156-3.112-7.0156-6.9844 0-3.8723 3.1433-7.0156 7.0156-7.0156zm-0.94141 1.9883-0.076172 0.60547c-0.075649 0.98345-0.64317 1.3997-1.4375 1.4375h-0.56836v0.98242h1.4004v3.6309c0 0.7565 0.14002 1.4087 0.49219 1.8535 0.36674 0.46325 0.94623 0.70779 1.7402 0.73047 0.53068 0.01516 0.93381-0.14191 1.2852-0.35156 0.32732-0.19531 0.64323-0.49089 1.0215-0.86914l-0.87109-0.75781c-0.16821 0.20393-0.31343 0.33907-0.52344 0.50391-0.1052 0.082569-0.42149 0.29102-0.64844 0.29102-0.37825 0-0.64887-0.18566-0.75586-0.45312-0.12002-0.30006-0.11328-0.68249-0.11328-0.94727v-3.6309h2.0039v-1.0215h-2.0039v-2.0039h-0.94531z" fill-rule="evenodd"/></svg>
