<svg width="1em" height="1em" fill="currentColor" viewBox="0 0 20 20" xmlns="http://www.w3.org/2000/svg"><path d="m10.02 0c-5.5198 0-10.02 4.4997-10.02 10.02-1.1842e-15 5.5198 4.4997 9.9805 10.02 9.9805 5.5198 0 9.9805-4.4606 9.9805-9.9805 0-5.5198-4.4606-10.02-9.9805-10.02zm-0.98437 4.3477h0.98437v2.6836h3.0234v0.98438h-3.0234v4.9902c0 0.75614 0.036158 1.8647 1.0195 1.8906 0.45353 0.01194 0.94629-0.60575 1.2109-0.9082l0.83203 0.79492c-0.63547 0.70643-1.2299 1.285-2.4199 1.2637-1.8145-0.03253-2.4199-1.2641-2.4199-3.041v-4.9902h-2.2305v-0.94531l0.64258-0.039062c0.94518-0.037807 2.231-0.79226 2.3066-1.8887l0.074219-0.79492z" fill-rule="evenodd"/></svg>
