<svg width="1em" height="1em" fill="currentColor" viewBox="0 0 20 20" xmlns="http://www.w3.org/2000/svg"><path d="m10.019 0c5.5198 0 9.9811 4.4991 9.9811 10.019 0 5.5198-4.4612 9.9811-9.9811 9.9811-5.5198 0-10.019-4.4612-10.019-9.9811 0-5.5198 4.4991-10.019 10.019-10.019zm0 1.0208c-4.9905 0-8.9981 4.0076-8.9981 8.9981 0 4.9527 4.0076 8.9981 8.9981 8.9981 4.9527 0 8.9981-4.0454 8.9981-8.9981 0-4.9905-4.0454-8.9981-8.9981-8.9981zm-1.7769 11.985v-4.9905h-2.2306v-0.94518l0.64272-0.037807c0.94518-0.037807 2.2306-0.79395 2.3062-1.8904l0.07561-0.79395h0.98299v2.6843h3.0246v0.98299h-3.0246v4.9905c0 0.75614 0.03742 1.8645 1.0208 1.8904 0.45353 0.01194 0.94518-0.60492 1.2098-0.90737l0.83176 0.79395c-0.63547 0.70643-1.2296 1.2864-2.4197 1.2651-1.8145-0.03253-2.4197-1.2651-2.4197-3.042z" fill-rule="evenodd"/></svg>
