<svg width="1em" height="1em" fill="currentColor" viewBox="0 0 14 14" xmlns="http://www.w3.org/2000/svg"><path d="m6.9811 0c3.8868 0 7.0189 3.1321 7.0189 6.9811 0 3.8868-3.1321 7.0189-7.0189 7.0189-3.8491 0-6.9811-3.1321-6.9811-7.0189 0-3.8491 3.1321-6.9811 6.9811-6.9811zm-1.5094 8.7547c0 0.67924 0.15094 1.2453 0.49057 1.6226 0.33962 0.37736 0.86792 0.60377 1.5094 0.60377 0.49057 0 0.83019-0.07547 1.1698-0.26415 0.30189-0.18868 0.56604-0.45283 0.90566-0.75472l-0.75472-0.67925c-0.11321 0.11321-0.26415 0.30189-0.45283 0.45283-0.18868 0.15094-0.28089 0.26415-0.56604 0.26415-0.33962 0-0.56604-0.18868-0.67925-0.4151-0.11321-0.26415-0.11321-0.56604-0.11321-0.83019v-2.7547h2v-1.0189h-2v-2h-0.9434l-0.037735 0.5283c-0.14925 1.114-0.64096 1.3402-1.4928 1.4994l-0.50719 0.047765v0.9434h1.4717z" fill-rule="evenodd"/></svg>
