<svg width="1em" height="1em" fill="currentColor" viewBox="0 0 24 24" xmlns="http://www.w3.org/2000/svg"><path d="m12.019 0c6.6142 0 11.981 5.3669 11.981 12.019 0 6.6142-5.3669 11.981-11.981 11.981-6.652 0-12.019-5.3669-12.019-11.981 0-6.652 5.3669-12.019 12.019-12.019zm-2.0031 15.609c0 2.0787 1.7764 3.4016 3.5906 3.4016 1.0583 0 1.9276-0.34016 2.5701-0.98268l-0.64252-0.7937c-0.45354 0.41575-0.98268 0.60472-1.5118 0.60472-1.2094 0-2.0032-1.0583-2.0032-2.2299v-6.7654h3.9685v-0.98268h-3.9685v-3.515h-0.98268l-0.03779 0.86929c-0.11339 1.6252-1.5118 2.4945-3.0992 2.6457l-0.90709 0.075589v0.90709h3.0236z" fill-rule="evenodd"/></svg>
